<svg width="92" height="16" viewBox="0 0 92 16" fill="none" xmlns="http://www.w3.org/2000/svg">
<path d="M90.8959 7.92955L83.9528 14.8931L85.0559 15.9995L91.9991 9.03594L90.8959 7.92955Z" fill="#FFFFFF"/>
<path d="M91.3548 3.95536C91.3548 2.95727 90.968 2.01802 90.264 1.31194C88.8103 -0.145973 86.4484 -0.145973 84.9947 1.31194L79.0932 7.23294L80.197 8.34L86.0986 2.42118C86.9438 1.57345 88.3171 1.57345 89.1623 2.42118C89.5708 2.83087 89.7968 3.37786 89.7968 3.95754C89.7968 4.53722 89.5708 5.08421 89.1623 5.49391L80.4838 14.1978C80.3535 14.3286 80.1796 14.4005 79.9949 14.4005C79.8102 14.4005 79.6364 14.3286 79.5039 14.1978C79.3735 14.067 79.3018 13.8927 79.3018 13.7075C79.3018 13.5222 79.3735 13.3479 79.5039 13.2171L84.3646 8.34218L83.2608 7.23512L78.3979 12.1079C77.972 12.535 77.7373 13.1016 77.7373 13.7053C77.7373 14.3089 77.972 14.8755 78.3979 15.3027C78.8237 15.7298 79.3887 15.9652 79.9906 15.9652C80.5925 15.9652 81.1574 15.7298 81.5833 15.3027L90.2618 6.59878C90.968 5.89271 91.3548 4.95346 91.3548 3.95536Z" fill="#FFFFFF"/>
<path d="M7.97667 2.08118C9.69325 2.08118 11.2382 2.81776 12.3159 3.99019L13.7826 2.5192C12.329 0.969763 10.2669 0 7.97667 0C3.57005 0 0 3.5805 0 8C0 12.4195 3.57005 16 7.97667 16C10.2495 16 12.2964 15.0455 13.75 13.5178L12.2833 12.0469C11.2056 13.1997 9.67586 13.921 7.97667 13.921C4.71734 13.921 2.07511 11.271 2.07511 8.00218C2.07511 4.73332 4.71734 2.08118 7.97667 2.08118Z" fill="#FFFFFF"/>
<path d="M25.6033 9.82608L25.6054 9.82826H19.1063L22.3548 2.50383L24.6906 7.77106H26.7419L23.3804 0.19165H21.3314L14.3195 15.9999H16.3685L18.1937 11.8855H26.5159L28.3411 15.9999H30.3901L27.6523 9.82608H25.6033Z" fill="#FFFFFF"/>
<path d="M45.0787 15.5553V0.19165H43.0275V12.694L34.0752 0.19165H33.758H32.024H31.7068V15.9999H33.758V3.05518L43.0167 15.9824V15.9999H43.0275H43.5642H45.0787V15.5553Z" fill="#FFFFFF"/>
<path d="M57.8422 2.24936C56.4429 0.972325 54.5829 0.194336 52.5404 0.194336H49.1007H47.0516V2.24936V2.42806V6.12623V6.42261V9.77211V10.0685V11.8903H48.1055H48.2011H49.1007V3.44795V3.37603V2.24936H52.5404C52.5556 2.24936 52.573 2.25154 52.5882 2.25154C52.6034 2.25154 52.6208 2.24936 52.636 2.24936C55.8562 2.24936 58.4658 4.86663 58.4658 8.09627C58.4658 11.3259 55.8562 13.9432 52.636 13.9432C52.6208 13.9432 52.6034 13.941 52.5882 13.941C52.573 13.941 52.5556 13.9432 52.5404 13.9432H51.9971H49.1007H47.2407H47.0516V15.1025V15.9982H49.1007H52.5404C54.5807 15.9982 56.4407 15.2202 57.8422 13.9432C59.4262 12.4983 60.4214 10.4128 60.4214 8.09627C60.4214 5.77974 59.4262 3.6942 57.8422 2.24936Z" fill="#FFFFFF"/>
<path d="M70.8426 10.8264C72.9872 10.0919 74.5321 8.05654 74.5321 5.65501C74.5321 2.63676 72.0942 0.19165 69.0847 0.19165H62.1663V2.24668V7.00614H64.2153V2.24886H69.0825C70.9599 2.24886 72.4809 3.77433 72.4809 5.65719C72.4809 7.54006 70.9599 9.06553 69.0825 9.06553H67.6723H64.2153H62.1663V11.1206V15.9999H64.2153V11.1184H68.6762L72.1637 15.9977H72.8047H74.5278L70.8426 10.8264Z" fill="#FFFFFF"/>
</svg>
